D:\school\WTK\thesis\model\3dpredictsim\Results\Batchsim_tmt_linear_v2\Pog_s1_tmt_bCst_d02_k800_ig24_act_GRF.mot
nRows=10
nColumns=19

name D:\school\WTK\thesis\model\3dpredictsim\Results\Batchsim_tmt_linear_v2\Pog_s1_tmt_bCst_d02_k800_ig24_act_GRF.mot
datacolumns 19
datarows 10
range 0.6663440763 0.7862860100
endheader
time 	ground_force_vx	ground_force_vy	ground_force_vz	ground_force_px	ground_force_py	ground_force_pz	1_ground_force_vx	1_ground_force_vy	1_ground_force_vz	1_ground_force_px	1_ground_force_py	1_ground_force_pz	ground_torque_x	ground_torque_y	ground_torque_z	1_ground_torque_x	1_ground_torque_y	1_ground_torque_z
        0.6663440763	       24.4902860910	      223.7419723360	        8.3597901318	        0.4696417429	        0.0000000000	        0.0470042307	     -116.7108246388	      112.0434629642	       -2.6522870565	        1.0580439146	        0.0000000000	       -0.0519209534	        0.0000000000	        0.0000000000	        0.0000000000	        0.0000000000	        0.0000000000	        0.0000000000	
        0.6796709578	       20.7213259940	      195.5610692808	        8.0040966414	        0.4694333159	        0.0000000000	        0.0469325994	      -85.9387009951	      367.1010284787	        1.7855986901	        1.0636291154	        0.0000000000	       -0.0516737571	        0.0000000000	        0.0000000000	        0.0000000000	        0.0000000000	        0.0000000000	        0.0000000000	
        0.6929978393	       18.4804755519	      154.5334856022	       10.1577101000	        0.4699326412	        0.0000000000	        0.0471847712	     -108.4483134173	      622.7603508841	        9.9688342577	        1.0664013167	        0.0000000000	       -0.0517918731	        0.0000000000	        0.0000000000	        0.0000000000	        0.0000000000	        0.0000000000	        0.0000000000	
        0.7063247209	       11.4080385057	      100.7142532571	       12.8100620667	        0.4703945290	        0.0000000000	        0.0476992948	     -172.2716633975	      845.1521771450	       18.3701552558	        1.0757263256	        0.0000000000	       -0.0539838057	        0.0000000000	        0.0000000000	        0.0000000000	        0.0000000000	        0.0000000000	        0.0000000000	
        0.7196516024	       -4.5738600649	       40.7450159569	        6.9208059018	        0.4694479856	        0.0000000000	        0.0477595519	     -210.9154973967	      965.6925025358	       22.8601510352	        1.0860067774	        0.0000000000	       -0.0565206799	        0.0000000000	        0.0000000000	        0.0000000000	        0.0000000000	        0.0000000000	        0.0000000000	
        0.7329784839	       -5.9867946273	        5.6995583036	       -0.1189113017	        0.0000000000	        0.0000000000	        0.0000000000	     -197.2494702482	      937.2728752043	       21.7386882322	        1.0929799793	        0.0000000000	       -0.0580568477	        0.0000000000	        0.0000000000	        0.0000000000	        0.0000000000	        0.0000000000	        0.0000000000	
        0.7463053654	      -11.9517965420	        9.0349759192	       -0.9600905764	        0.0000000000	        0.0000000000	        0.0000000000	     -171.6597246737	      851.0155017197	       18.1745309272	        1.0979894249	        0.0000000000	       -0.0590592449	        0.0000000000	        0.0000000000	        0.0000000000	        0.0000000000	        0.0000000000	        0.0000000000	
        0.7596322470	      -10.4526298752	        6.7705081043	       -0.8636363234	        0.0000000000	        0.0000000000	        0.0000000000	     -147.2339172459	      780.4365583661	       16.6514590771	        1.1020652943	        0.0000000000	       -0.0596962408	        0.0000000000	        0.0000000000	        0.0000000000	        0.0000000000	        0.0000000000	        0.0000000000	
        0.7729591285	       -7.3347017031	        4.2607510430	       -0.5597828431	        0.0000000000	        0.0000000000	        0.0000000000	     -128.4000396903	      734.9629485337	       14.6296766721	        1.1060959975	        0.0000000000	       -0.0601727400	        0.0000000000	        0.0000000000	        0.0000000000	        0.0000000000	        0.0000000000	        0.0000000000	
        0.7862860100	       -4.2583831500	        2.2730671848	       -0.2894952198	        0.0000000000	        0.0000000000	        0.0000000000	     -115.6631762185	      714.4453784568	       14.7813530192	        1.1111374323	        0.0000000000	       -0.0606265213	        0.0000000000	        0.0000000000	        0.0000000000	        0.0000000000	        0.0000000000	        0.0000000000	
